<svg width="266" height="75" viewBox="0 0 266 75" fill="none" xmlns="http://www.w3.org/2000/svg">
<mask id="path-1-outside-1_367_183" maskUnits="userSpaceOnUse" x="0" y="20" width="139" height="44" fill="black">
<rect fill="white" y="20" width="139" height="44"/>
<path d="M17.3386 31.673C17.4008 31.1758 17.7736 30.9272 18.2708 30.9272H22.0617C22.6831 30.9272 22.9317 31.3001 22.8074 31.8594L15.785 60.0113C15.4742 61.5028 14.4799 62.2486 12.9884 62.2486H10.4405C8.88682 62.2486 7.95463 61.5028 7.6439 60.0113L0.621456 31.8594C0.497164 31.3001 0.745747 30.9272 1.30506 30.9272H5.15808C5.65525 30.9272 6.02812 31.1758 6.09026 31.673L11.6834 57.2148L17.3386 31.673ZM27.5912 27.012C25.7268 27.012 24.4217 25.6448 24.4217 23.8426C24.4217 21.9783 25.7268 20.6111 27.5912 20.6111C29.3934 20.6111 30.8227 21.9783 30.8227 23.8426C30.8227 25.5206 29.3934 27.012 27.5912 27.012ZM25.7889 62C25.2296 62 24.9189 61.6893 24.9189 61.13V31.7351C24.9189 31.2379 25.2296 30.9272 25.7889 30.9272H29.3934C29.9527 30.9272 30.2634 31.2379 30.2634 31.7351V61.13C30.2634 61.6893 29.9527 62 29.3934 62H25.7889ZM43.4116 62.6836C37.5078 62.6836 33.5304 58.4577 33.5304 52.5539V40.3733C33.5304 34.4695 37.4456 30.2436 43.2873 30.2436C48.8804 30.2436 52.6091 34.0966 52.982 39.7519C53.0441 40.2491 52.7334 40.5598 52.1741 40.5598H48.5075C48.0104 40.5598 47.6996 40.3112 47.6375 39.7519C47.3889 36.9553 45.8353 35.3396 43.2873 35.3396C40.5529 35.3396 38.875 37.2661 38.875 40.1869V52.7403C38.875 55.6612 40.5529 57.5877 43.3494 57.5877C45.9596 57.5877 47.6375 55.7854 47.8861 52.7403C47.9482 52.1189 48.1968 51.8703 48.694 51.8703H52.4227C52.9199 51.8703 53.2306 52.181 53.2306 52.8025C52.8577 58.6441 49.0668 62.6836 43.4116 62.6836ZM68.3334 57.1526C68.8927 57.1526 69.2035 57.4634 69.2035 57.9605V61.3785C69.2035 61.8757 68.8927 62.1864 68.3334 62.1864H67.4012C61.2488 62.1864 57.5822 58.0227 57.5822 51.1867V35.7746H54.1021C53.6049 35.7746 53.2942 35.4638 53.2942 34.9667V31.7351C53.2942 31.2379 53.6049 30.9272 54.1021 30.9272H57.5822V22.9104C57.5822 22.3511 57.893 22.0404 58.4523 22.0404H62.0567C62.5539 22.0404 62.8646 22.3511 62.8646 22.9104V30.9272H67.6498C68.147 30.9272 68.4577 31.2379 68.4577 31.7351V34.9667C68.4577 35.4638 68.147 35.7746 67.6498 35.7746H62.8646V51.2488C62.8646 55.164 64.4804 57.1526 67.6498 57.1526H68.3334ZM80.5887 62.6836C74.6227 62.6836 70.6454 58.4577 70.6454 52.5539V40.3733C70.6454 34.4695 74.6227 30.2436 80.5887 30.2436C86.6168 30.2436 90.532 34.4695 90.532 40.3733V52.5539C90.532 58.4577 86.6168 62.6836 80.5887 62.6836ZM80.5887 57.6498C83.4474 57.6498 85.1875 55.6612 85.1875 52.7403V40.1869C85.1875 37.2661 83.4474 35.2774 80.5887 35.2774C77.73 35.2774 76.0521 37.2661 76.0521 40.1869V52.7403C76.0521 55.6612 77.73 57.6498 80.5887 57.6498ZM94.9701 62C94.4108 62 94.1 61.6893 94.1 61.13V41.6784C94.1 34.9667 98.4502 30.8029 104.727 30.8029H107.026C107.523 30.8029 107.834 31.1137 107.834 31.673V35.0288C107.834 35.526 107.523 35.8367 107.026 35.8367H104.789C101.557 35.8367 99.4445 37.8875 99.4445 41.2434V61.13C99.4445 61.6893 99.1338 62 98.5745 62H94.9701ZM112.701 27.012C110.837 27.012 109.532 25.6448 109.532 23.8426C109.532 21.9783 110.837 20.6111 112.701 20.6111C114.504 20.6111 115.933 21.9783 115.933 23.8426C115.933 25.5206 114.504 27.012 112.701 27.012ZM110.899 62C110.34 62 110.029 61.6893 110.029 61.13V31.7351C110.029 31.2379 110.34 30.9272 110.899 30.9272H114.504C115.063 30.9272 115.374 31.2379 115.374 31.7351V61.13C115.374 61.6893 115.063 62 114.504 62H110.899ZM128.819 62.6215C122.791 62.6215 118.752 58.4577 118.752 52.616C118.752 47.4579 122.729 43.4806 128.571 43.4806H133.232V40.0626C133.232 37.2661 131.554 35.3396 128.757 35.3396C126.147 35.3396 124.718 37.0796 124.531 39.6276C124.469 40.1869 124.221 40.3733 123.661 40.3733H120.057C119.56 40.3733 119.249 40.0005 119.249 39.5033C119.622 34.0966 123.289 30.2436 128.819 30.2436C134.723 30.2436 138.514 34.4695 138.514 40.3112V52.8025C138.514 58.5198 134.785 62.6215 128.819 62.6215ZM128.757 57.5255C131.616 57.5255 133.232 55.6612 133.232 52.8025V48.2658H128.757C125.836 48.2658 124.096 50.1923 124.096 52.616C124.096 55.599 125.836 57.5255 128.757 57.5255Z"/>
</mask>
<path d="M17.3386 31.673C17.4008 31.1758 17.7736 30.9272 18.2708 30.9272H22.0617C22.6831 30.9272 22.9317 31.3001 22.8074 31.8594L15.785 60.0113C15.4742 61.5028 14.4799 62.2486 12.9884 62.2486H10.4405C8.88682 62.2486 7.95463 61.5028 7.6439 60.0113L0.621456 31.8594C0.497164 31.3001 0.745747 30.9272 1.30506 30.9272H5.15808C5.65525 30.9272 6.02812 31.1758 6.09026 31.673L11.6834 57.2148L17.3386 31.673ZM27.5912 27.012C25.7268 27.012 24.4217 25.6448 24.4217 23.8426C24.4217 21.9783 25.7268 20.6111 27.5912 20.6111C29.3934 20.6111 30.8227 21.9783 30.8227 23.8426C30.8227 25.5206 29.3934 27.012 27.5912 27.012ZM25.7889 62C25.2296 62 24.9189 61.6893 24.9189 61.13V31.7351C24.9189 31.2379 25.2296 30.9272 25.7889 30.9272H29.3934C29.9527 30.9272 30.2634 31.2379 30.2634 31.7351V61.13C30.2634 61.6893 29.9527 62 29.3934 62H25.7889ZM43.4116 62.6836C37.5078 62.6836 33.5304 58.4577 33.5304 52.5539V40.3733C33.5304 34.4695 37.4456 30.2436 43.2873 30.2436C48.8804 30.2436 52.6091 34.0966 52.982 39.7519C53.0441 40.2491 52.7334 40.5598 52.1741 40.5598H48.5075C48.0104 40.5598 47.6996 40.3112 47.6375 39.7519C47.3889 36.9553 45.8353 35.3396 43.2873 35.3396C40.5529 35.3396 38.875 37.2661 38.875 40.1869V52.7403C38.875 55.6612 40.5529 57.5877 43.3494 57.5877C45.9596 57.5877 47.6375 55.7854 47.8861 52.7403C47.9482 52.1189 48.1968 51.8703 48.694 51.8703H52.4227C52.9199 51.8703 53.2306 52.181 53.2306 52.8025C52.8577 58.6441 49.0668 62.6836 43.4116 62.6836ZM68.3334 57.1526C68.8927 57.1526 69.2035 57.4634 69.2035 57.9605V61.3785C69.2035 61.8757 68.8927 62.1864 68.3334 62.1864H67.4012C61.2488 62.1864 57.5822 58.0227 57.5822 51.1867V35.7746H54.1021C53.6049 35.7746 53.2942 35.4638 53.2942 34.9667V31.7351C53.2942 31.2379 53.6049 30.9272 54.1021 30.9272H57.5822V22.9104C57.5822 22.3511 57.893 22.0404 58.4523 22.0404H62.0567C62.5539 22.0404 62.8646 22.3511 62.8646 22.9104V30.9272H67.6498C68.147 30.9272 68.4577 31.2379 68.4577 31.7351V34.9667C68.4577 35.4638 68.147 35.7746 67.6498 35.7746H62.8646V51.2488C62.8646 55.164 64.4804 57.1526 67.6498 57.1526H68.3334ZM80.5887 62.6836C74.6227 62.6836 70.6454 58.4577 70.6454 52.5539V40.3733C70.6454 34.4695 74.6227 30.2436 80.5887 30.2436C86.6168 30.2436 90.532 34.4695 90.532 40.3733V52.5539C90.532 58.4577 86.6168 62.6836 80.5887 62.6836ZM80.5887 57.6498C83.4474 57.6498 85.1875 55.6612 85.1875 52.7403V40.1869C85.1875 37.2661 83.4474 35.2774 80.5887 35.2774C77.73 35.2774 76.0521 37.2661 76.0521 40.1869V52.7403C76.0521 55.6612 77.73 57.6498 80.5887 57.6498ZM94.9701 62C94.4108 62 94.1 61.6893 94.1 61.13V41.6784C94.1 34.9667 98.4502 30.8029 104.727 30.8029H107.026C107.523 30.8029 107.834 31.1137 107.834 31.673V35.0288C107.834 35.526 107.523 35.8367 107.026 35.8367H104.789C101.557 35.8367 99.4445 37.8875 99.4445 41.2434V61.13C99.4445 61.6893 99.1338 62 98.5745 62H94.9701ZM112.701 27.012C110.837 27.012 109.532 25.6448 109.532 23.8426C109.532 21.9783 110.837 20.6111 112.701 20.6111C114.504 20.6111 115.933 21.9783 115.933 23.8426C115.933 25.5206 114.504 27.012 112.701 27.012ZM110.899 62C110.34 62 110.029 61.6893 110.029 61.13V31.7351C110.029 31.2379 110.34 30.9272 110.899 30.9272H114.504C115.063 30.9272 115.374 31.2379 115.374 31.7351V61.13C115.374 61.6893 115.063 62 114.504 62H110.899ZM128.819 62.6215C122.791 62.6215 118.752 58.4577 118.752 52.616C118.752 47.4579 122.729 43.4806 128.571 43.4806H133.232V40.0626C133.232 37.2661 131.554 35.3396 128.757 35.3396C126.147 35.3396 124.718 37.0796 124.531 39.6276C124.469 40.1869 124.221 40.3733 123.661 40.3733H120.057C119.56 40.3733 119.249 40.0005 119.249 39.5033C119.622 34.0966 123.289 30.2436 128.819 30.2436C134.723 30.2436 138.514 34.4695 138.514 40.3112V52.8025C138.514 58.5198 134.785 62.6215 128.819 62.6215ZM128.757 57.5255C131.616 57.5255 133.232 55.6612 133.232 52.8025V48.2658H128.757C125.836 48.2658 124.096 50.1923 124.096 52.616C124.096 55.599 125.836 57.5255 128.757 57.5255Z" fill="white"/>
<path d="M17.3386 31.673L17.7983 31.7747L17.803 31.7532L17.8058 31.7314L17.3386 31.673ZM22.8074 31.8594L23.2644 31.9734L23.267 31.9615L22.8074 31.8594ZM15.785 60.0113L15.3282 59.8974L15.3259 59.9063L15.3241 59.9153L15.785 60.0113ZM7.6439 60.0113L8.10481 59.9153L8.10293 59.9063L8.10071 59.8974L7.6439 60.0113ZM0.621456 31.8594L0.161714 31.9616L0.164654 31.9734L0.621456 31.8594ZM6.09026 31.673L5.6231 31.7314L5.62577 31.7527L5.63036 31.7737L6.09026 31.673ZM11.6834 57.2148L11.2235 57.3155L12.143 57.3166L11.6834 57.2148ZM17.8058 31.7314C17.8227 31.5962 17.8737 31.5287 17.9269 31.4881C17.9882 31.4414 18.0972 31.398 18.2708 31.398V30.4564C17.9472 30.4564 17.6212 30.5373 17.3562 30.7392C17.0832 30.9472 16.9167 31.2526 16.8714 31.6146L17.8058 31.7314ZM18.2708 31.398H22.0617V30.4564H18.2708V31.398ZM22.0617 31.398C22.2842 31.398 22.3349 31.4626 22.3397 31.4689C22.3492 31.4814 22.393 31.5541 22.3478 31.7573L23.267 31.9615C23.3462 31.6054 23.3278 31.212 23.0887 30.8982C22.8449 30.5783 22.4606 30.4564 22.0617 30.4564V31.398ZM22.3506 31.7455L15.3282 59.8974L16.2418 60.1253L23.2642 31.9734L22.3506 31.7455ZM15.3241 59.9153C15.1864 60.5762 14.9079 61.0285 14.5383 61.3193C14.1668 61.6116 13.6561 61.7778 12.9884 61.7778V62.7194C13.8122 62.7194 14.5444 62.5127 15.1206 62.0593C15.6988 61.6043 16.0728 60.9379 16.2459 60.1074L15.3241 59.9153ZM12.9884 61.7778H10.4405V62.7194H12.9884V61.7778ZM10.4405 61.7778C9.73801 61.7778 9.23053 61.6099 8.87019 61.3216C8.51093 61.0342 8.24414 60.5841 8.10481 59.9153L7.183 60.1074C7.3544 60.9301 7.70906 61.5986 8.28198 62.0569C8.85383 62.5144 9.58926 62.7194 10.4405 62.7194V61.7778ZM8.10071 59.8974L1.07826 31.7455L0.164654 31.9734L7.1871 60.1253L8.10071 59.8974ZM1.08104 31.7573C1.03607 31.5549 1.078 31.474 1.09001 31.4572C1.09377 31.452 1.12998 31.398 1.30506 31.398V30.4564C0.92082 30.4564 0.553084 30.5889 0.3238 30.9099C0.102768 31.2194 0.0825492 31.6046 0.161867 31.9615L1.08104 31.7573ZM1.30506 31.398H5.15808V30.4564H1.30506V31.398ZM5.15808 31.398C5.33163 31.398 5.44067 31.4414 5.50198 31.4881C5.55517 31.5287 5.6062 31.5962 5.6231 31.7314L6.55743 31.6146C6.51218 31.2526 6.34571 30.9472 6.07263 30.7392C5.80768 30.5373 5.4817 30.4564 5.15808 30.4564V31.398ZM5.63036 31.7737L11.2235 57.3155L12.1433 57.1141L6.55017 31.5723L5.63036 31.7737ZM12.143 57.3166L17.7983 31.7747L16.8789 31.5712L11.2237 57.113L12.143 57.3166ZM27.5912 26.5413C25.9929 26.5413 24.8925 25.391 24.8925 23.8426H23.9509C23.9509 25.8987 25.4607 27.4828 27.5912 27.4828V26.5413ZM24.8925 23.8426C24.8925 22.226 25.9989 21.0819 27.5912 21.0819V20.1403C25.4547 20.1403 23.9509 21.7305 23.9509 23.8426H24.8925ZM27.5912 21.0819C29.1394 21.0819 30.3519 22.2442 30.3519 23.8426H31.2935C31.2935 21.7123 29.6474 20.1403 27.5912 20.1403V21.0819ZM30.3519 23.8426C30.3519 25.2605 29.1334 26.5413 27.5912 26.5413V27.4828C29.6534 27.4828 31.2935 25.7806 31.2935 23.8426H30.3519ZM25.7889 61.5292C25.5945 61.5292 25.5118 61.4765 25.4771 61.4418C25.4424 61.4071 25.3897 61.3244 25.3897 61.13H24.4481C24.4481 61.4948 24.5508 61.8472 24.8113 62.1076C25.0718 62.3681 25.4241 62.4708 25.7889 62.4708V61.5292ZM25.3897 61.13V31.7351H24.4481V61.13H25.3897ZM25.3897 31.7351C25.3897 31.5865 25.4336 31.5191 25.468 31.4865C25.5054 31.451 25.5944 31.398 25.7889 31.398V30.4564C25.4242 30.4564 25.0781 30.5588 24.8204 30.803C24.5596 31.05 24.4481 31.3866 24.4481 31.7351H25.3897ZM25.7889 31.398H29.3934V30.4564H25.7889V31.398ZM29.3934 31.398C29.588 31.398 29.6769 31.451 29.7144 31.4865C29.7487 31.5191 29.7926 31.5865 29.7926 31.7351H30.7342C30.7342 31.3866 30.6228 31.05 30.3619 30.803C30.1042 30.5588 29.7581 30.4564 29.3934 30.4564V31.398ZM29.7926 31.7351V61.13H30.7342V31.7351H29.7926ZM29.7926 61.13C29.7926 61.3244 29.74 61.4071 29.7052 61.4418C29.6705 61.4765 29.5879 61.5292 29.3934 61.5292V62.4708C29.7582 62.4708 30.1106 62.3681 30.3711 62.1076C30.6315 61.8472 30.7342 61.4948 30.7342 61.13H29.7926ZM29.3934 61.5292H25.7889V62.4708H29.3934V61.5292ZM52.982 39.7519L52.5122 39.7829L52.5131 39.7966L52.5148 39.8103L52.982 39.7519ZM47.6375 39.7519L47.1684 39.7936L47.1696 39.8039L47.6375 39.7519ZM47.8861 52.7403L47.4175 52.6935L47.4168 52.702L47.8861 52.7403ZM53.2306 52.8025L53.7004 52.8324L53.7014 52.8175V52.8025H53.2306ZM43.4116 62.2128C40.5764 62.2128 38.232 61.2006 36.5958 59.5057C34.958 57.8091 34.0012 55.3987 34.0012 52.5539H33.0596C33.0596 55.6129 34.0915 58.2673 35.9184 60.1597C37.7468 62.0537 40.3429 63.1544 43.4116 63.1544V62.2128ZM34.0012 52.5539V40.3733H33.0596V52.5539H34.0012ZM34.0012 40.3733C34.0012 37.5264 34.9439 35.1153 36.5592 33.4192C38.1724 31.7254 40.4849 30.7144 43.2873 30.7144V29.7728C40.248 29.7728 37.6821 30.8748 35.8773 32.7699C34.0746 34.6627 33.0596 37.3164 33.0596 40.3733H34.0012ZM43.2873 30.7144C45.9708 30.7144 48.1782 31.6361 49.7601 33.2107C51.3447 34.788 52.3321 37.0512 52.5122 39.7829L53.4518 39.7209C53.259 36.7973 52.1956 34.3064 50.4244 32.5434C48.6504 30.7776 46.1969 29.7728 43.2873 29.7728V30.7144ZM52.5148 39.8103C52.5319 39.9469 52.4943 39.9932 52.4782 40.0094C52.4534 40.0341 52.3727 40.089 52.1741 40.089V41.0306C52.5349 41.0306 52.8891 40.93 53.144 40.6752C53.4075 40.4117 53.4942 40.054 53.4492 39.6935L52.5148 39.8103ZM52.1741 40.089H48.5075V41.0306H52.1741V40.089ZM48.5075 40.089C48.3353 40.089 48.2591 40.0467 48.2233 40.0147C48.1876 39.9828 48.128 39.9037 48.1054 39.6999L47.1696 39.8039C47.2091 40.1594 47.336 40.4843 47.5954 40.7164C47.8549 40.9486 48.1826 41.0306 48.5075 41.0306V40.089ZM48.1064 39.7102C47.9755 38.2371 47.4957 37.0199 46.661 36.1676C45.8203 35.3091 44.666 34.8688 43.2873 34.8688V35.8104C44.4566 35.8104 45.3531 36.1779 45.9883 36.8264C46.6296 37.4812 47.0509 38.4702 47.1685 39.7936L48.1064 39.7102ZM43.2873 34.8688C41.8033 34.8688 40.5668 35.3953 39.7056 36.3531C38.8496 37.3052 38.4042 38.6385 38.4042 40.1869H39.3458C39.3458 38.8144 39.7393 37.7241 40.4058 36.9827C41.0672 36.247 42.0369 35.8104 43.2873 35.8104V34.8688ZM38.4042 40.1869V52.7403H39.3458V40.1869H38.4042ZM38.4042 52.7403C38.4042 54.2887 38.8497 55.6231 39.715 56.5758C40.5853 57.534 41.8374 58.0585 43.3494 58.0585V57.1169C42.0649 57.1169 41.0798 56.678 40.412 55.9428C39.7392 55.202 39.3458 54.1128 39.3458 52.7403H38.4042ZM43.3494 58.0585C44.7705 58.0585 45.9721 57.5639 46.8473 56.6274C47.7155 55.6984 48.2249 54.3757 48.3553 52.7786L47.4168 52.702C47.2986 54.1501 46.8448 55.251 46.1594 55.9844C45.481 56.7103 44.5385 57.1169 43.3494 57.1169V58.0585ZM48.3545 52.7872C48.3814 52.5186 48.4417 52.4246 48.4692 52.3955C48.4822 52.3817 48.5233 52.3411 48.694 52.3411V51.3995C48.3674 51.3995 48.0357 51.4831 47.7846 51.749C47.5479 51.9996 47.4529 52.3406 47.4176 52.6935L48.3545 52.7872ZM48.694 52.3411H52.4227V51.3995H48.694V52.3411ZM52.4227 52.3411C52.5705 52.3411 52.6323 52.384 52.6631 52.4183C52.7004 52.4597 52.7598 52.5648 52.7598 52.8025H53.7014C53.7014 52.4187 53.6054 52.0577 53.363 51.7884C53.1142 51.5119 52.7721 51.3995 52.4227 51.3995V52.3411ZM52.7607 52.7725C52.5803 55.5995 51.5757 57.9574 49.9653 59.6045C48.3585 61.2481 46.121 62.2128 43.4116 62.2128V63.1544C46.3574 63.1544 48.843 62.0994 50.6386 60.2628C52.4307 58.4297 53.508 55.8471 53.7004 52.8324L52.7607 52.7725ZM57.5822 35.7746H58.053V35.3038H57.5822V35.7746ZM57.5822 30.9272V31.398H58.053V30.9272H57.5822ZM62.8646 30.9272H62.3938V31.398H62.8646V30.9272ZM62.8646 35.7746V35.3038H62.3938V35.7746H62.8646ZM68.3334 57.6234C68.528 57.6234 68.6169 57.6765 68.6544 57.7119C68.6888 57.7445 68.7327 57.8119 68.7327 57.9605H69.6742C69.6742 57.612 69.5628 57.2755 69.302 57.0284C69.0442 56.7842 68.6981 56.6818 68.3334 56.6818V57.6234ZM68.7327 57.9605V61.3785H69.6742V57.9605H68.7327ZM68.7327 61.3785C68.7327 61.5272 68.6888 61.5946 68.6544 61.6271C68.6169 61.6626 68.528 61.7156 68.3334 61.7156V62.6572C68.6981 62.6572 69.0442 62.5549 69.302 62.3107C69.5628 62.0636 69.6742 61.7271 69.6742 61.3785H68.7327ZM68.3334 61.7156H67.4012V62.6572H68.3334V61.7156ZM67.4012 61.7156C64.4368 61.7156 62.1187 60.7164 60.5364 58.9372C58.9477 57.1509 58.053 54.5242 58.053 51.1867H57.1114C57.1114 54.6851 58.05 57.5584 59.8328 59.5629C61.6218 61.5746 64.2132 62.6572 67.4012 62.6572V61.7156ZM58.053 51.1867V35.7746H57.1114V51.1867H58.053ZM57.5822 35.3038H54.1021V36.2454H57.5822V35.3038ZM54.1021 35.3038C53.9528 35.3038 53.8796 35.2591 53.8446 35.2242C53.8096 35.1892 53.765 35.116 53.765 34.9667H52.8234C52.8234 35.3146 52.9341 35.6453 53.1788 35.89C53.4235 36.1347 53.7542 36.2454 54.1021 36.2454V35.3038ZM53.765 34.9667V31.7351H52.8234V34.9667H53.765ZM53.765 31.7351C53.765 31.5858 53.8096 31.5126 53.8446 31.4776C53.8796 31.4427 53.9528 31.398 54.1021 31.398V30.4564C53.7542 30.4564 53.4235 30.5671 53.1788 30.8118C52.9341 31.0565 52.8234 31.3872 52.8234 31.7351H53.765ZM54.1021 31.398H57.5822V30.4564H54.1021V31.398ZM58.053 30.9272V22.9104H57.1114V30.9272H58.053ZM58.053 22.9104C58.053 22.716 58.1057 22.6333 58.1404 22.5986C58.1751 22.5639 58.2578 22.5112 58.4523 22.5112V21.5696C58.0874 21.5696 57.7351 21.6723 57.4746 21.9328C57.2141 22.1932 57.1114 22.5456 57.1114 22.9104H58.053ZM58.4523 22.5112H62.0567V21.5696H58.4523V22.5112ZM62.0567 22.5112C62.2054 22.5112 62.2727 22.5551 62.3053 22.5895C62.3408 22.6269 62.3938 22.7159 62.3938 22.9104H63.3354C63.3354 22.5457 63.2331 22.1996 62.9889 21.9419C62.7418 21.6811 62.4052 21.5696 62.0567 21.5696V22.5112ZM62.3938 22.9104V30.9272H63.3354V22.9104H62.3938ZM62.8646 31.398H67.6498V30.4564H62.8646V31.398ZM67.6498 31.398C67.7991 31.398 67.8723 31.4427 67.9073 31.4776C67.9422 31.5126 67.9869 31.5858 67.9869 31.7351H68.9285C68.9285 31.3872 68.8178 31.0565 68.5731 30.8118C68.3284 30.5671 67.9977 30.4564 67.6498 30.4564V31.398ZM67.9869 31.7351V34.9667H68.9285V31.7351H67.9869ZM67.9869 34.9667C67.9869 35.116 67.9422 35.1892 67.9073 35.2242C67.8723 35.2591 67.7991 35.3038 67.6498 35.3038V36.2454C67.9977 36.2454 68.3284 36.1347 68.5731 35.89C68.8178 35.6453 68.9285 35.3146 68.9285 34.9667H67.9869ZM67.6498 35.3038H62.8646V36.2454H67.6498V35.3038ZM62.3938 35.7746V51.2488H63.3354V35.7746H62.3938ZM62.3938 51.2488C62.3938 53.2596 62.8069 54.8606 63.703 55.9655C64.6139 57.0886 65.961 57.6234 67.6498 57.6234V56.6818C66.1692 56.6818 65.1237 56.2223 64.4343 55.3724C63.7302 54.5041 63.3354 53.1532 63.3354 51.2488H62.3938ZM67.6498 57.6234H68.3334V56.6818H67.6498V57.6234ZM80.5887 62.2128C77.7211 62.2128 75.3612 61.1997 73.7178 59.5049C72.0729 57.8086 71.1162 55.3986 71.1162 52.5539H70.1746C70.1746 55.613 71.2066 58.2678 73.0418 60.1604C74.8786 62.0546 77.4903 63.1544 80.5887 63.1544V62.2128ZM71.1162 52.5539V40.3733H70.1746V52.5539H71.1162ZM71.1162 40.3733C71.1162 37.5286 72.0729 35.1186 73.7178 33.4223C75.3612 31.7276 77.7211 30.7144 80.5887 30.7144V29.7728C77.4903 29.7728 74.8786 30.8726 73.0418 32.7668C71.2066 34.6594 70.1746 37.3143 70.1746 40.3733H71.1162ZM80.5887 30.7144C83.4884 30.7144 85.8475 31.7282 87.4822 33.4215C89.1187 35.1168 90.0612 37.5266 90.0612 40.3733H91.0028C91.0028 37.3163 89.9877 34.6612 88.1596 32.7676C86.3297 30.872 83.7171 29.7728 80.5887 29.7728V30.7144ZM90.0612 40.3733V52.5539H91.0028V40.3733H90.0612ZM90.0612 52.5539C90.0612 55.4006 89.1187 57.8104 87.4822 59.5057C85.8475 61.199 83.4884 62.2128 80.5887 62.2128V63.1544C83.7171 63.1544 86.3297 62.0552 88.1596 60.1597C89.9877 58.266 91.0028 55.6109 91.0028 52.5539H90.0612ZM80.5887 58.1206C82.1328 58.1206 83.4144 57.5801 84.3068 56.6089C85.1949 55.6424 85.6583 54.2928 85.6583 52.7403H84.7167C84.7167 54.1086 84.31 55.2138 83.6134 55.9718C82.9211 56.7252 81.9033 57.179 80.5887 57.179V58.1206ZM85.6583 52.7403V40.1869H84.7167V52.7403H85.6583ZM85.6583 40.1869C85.6583 38.6344 85.1949 37.2848 84.3068 36.3183C83.4144 35.3471 82.1328 34.8066 80.5887 34.8066V35.7482C81.9033 35.7482 82.9211 36.202 83.6134 36.9554C84.31 37.7134 84.7167 38.8186 84.7167 40.1869H85.6583ZM80.5887 34.8066C79.0439 34.8066 77.7761 35.3477 76.8986 36.3217C76.0266 37.2896 75.5813 38.6388 75.5813 40.1869H76.5229C76.5229 38.8142 76.9165 37.7086 77.5982 36.952C78.2744 36.2014 79.2748 35.7482 80.5887 35.7482V34.8066ZM75.5813 40.1869V52.7403H76.5229V40.1869H75.5813ZM75.5813 52.7403C75.5813 54.2884 76.0266 55.6376 76.8986 56.6055C77.7761 57.5795 79.0439 58.1206 80.5887 58.1206V57.179C79.2748 57.179 78.2744 56.7258 77.5982 55.9753C76.9165 55.2186 76.5229 54.113 76.5229 52.7403H75.5813ZM94.9701 61.5292C94.7756 61.5292 94.6929 61.4765 94.6582 61.4418C94.6235 61.4071 94.5708 61.3244 94.5708 61.13H93.6292C93.6292 61.4948 93.7319 61.8472 93.9924 62.1076C94.2529 62.3681 94.6052 62.4708 94.9701 62.4708V61.5292ZM94.5708 61.13V41.6784H93.6292V61.13H94.5708ZM94.5708 41.6784C94.5708 38.4265 95.6226 35.8341 97.3933 34.056C99.1644 32.2775 101.695 31.2737 104.727 31.2737V30.3321C101.483 30.3321 98.6993 31.4102 96.7261 33.3916C94.7526 35.3733 93.6292 38.2186 93.6292 41.6784H94.5708ZM104.727 31.2737H107.026V30.3321H104.727V31.2737ZM107.026 31.2737C107.175 31.2737 107.242 31.3176 107.275 31.352C107.31 31.3894 107.363 31.4784 107.363 31.673H108.305C108.305 31.3083 108.203 30.9622 107.958 30.7044C107.711 30.4436 107.375 30.3321 107.026 30.3321V31.2737ZM107.363 31.673V35.0288H108.305V31.673H107.363ZM107.363 35.0288C107.363 35.1781 107.319 35.2513 107.284 35.2863C107.249 35.3213 107.176 35.3659 107.026 35.3659V36.3075C107.374 36.3075 107.705 36.1968 107.95 35.9521C108.194 35.7074 108.305 35.3767 108.305 35.0288H107.363ZM107.026 35.3659H104.789V36.3075H107.026V35.3659ZM104.789 35.3659C103.072 35.3659 101.608 35.9126 100.572 36.9487C99.5357 37.9851 98.9737 39.4651 98.9737 41.2434H99.9153C99.9153 39.6659 100.41 38.4425 101.238 37.6145C102.066 36.7862 103.274 36.3075 104.789 36.3075V35.3659ZM98.9737 41.2434V61.13H99.9153V41.2434H98.9737ZM98.9737 61.13C98.9737 61.3244 98.9211 61.4071 98.8864 61.4418C98.8516 61.4765 98.769 61.5292 98.5745 61.5292V62.4708C98.9393 62.4708 99.2917 62.3681 99.5522 62.1076C99.8126 61.8472 99.9153 61.4948 99.9153 61.13H98.9737ZM98.5745 61.5292H94.9701V62.4708H98.5745V61.5292ZM112.701 26.5413C111.103 26.5413 110.003 25.391 110.003 23.8426H109.061C109.061 25.8987 110.571 27.4828 112.701 27.4828V26.5413ZM110.003 23.8426C110.003 22.226 111.109 21.0819 112.701 21.0819V20.1403C110.565 20.1403 109.061 21.7305 109.061 23.8426H110.003ZM112.701 21.0819C114.25 21.0819 115.462 22.2442 115.462 23.8426H116.404C116.404 21.7123 114.758 20.1403 112.701 20.1403V21.0819ZM115.462 23.8426C115.462 25.2605 114.244 26.5413 112.701 26.5413V27.4828C114.764 27.4828 116.404 25.7806 116.404 23.8426H115.462ZM110.899 61.5292C110.705 61.5292 110.622 61.4765 110.587 61.4418C110.553 61.4071 110.5 61.3244 110.5 61.13H109.558C109.558 61.4948 109.661 61.8472 109.922 62.1076C110.182 62.3681 110.534 62.4708 110.899 62.4708V61.5292ZM110.5 61.13V31.7351H109.558V61.13H110.5ZM110.5 31.7351C110.5 31.5865 110.544 31.5191 110.578 31.4865C110.616 31.451 110.705 31.398 110.899 31.398V30.4564C110.535 30.4564 110.188 30.5588 109.931 30.803C109.67 31.05 109.558 31.3866 109.558 31.7351H110.5ZM110.899 31.398H114.504V30.4564H110.899V31.398ZM114.504 31.398C114.698 31.398 114.787 31.451 114.825 31.4865C114.859 31.5191 114.903 31.5865 114.903 31.7351H115.845C115.845 31.3866 115.733 31.05 115.472 30.803C115.214 30.5588 114.868 30.4564 114.504 30.4564V31.398ZM114.903 31.7351V61.13H115.845V31.7351H114.903ZM114.903 61.13C114.903 61.3244 114.85 61.4071 114.816 61.4418C114.781 61.4765 114.698 61.5292 114.504 61.5292V62.4708C114.868 62.4708 115.221 62.3681 115.481 62.1076C115.742 61.8472 115.845 61.4948 115.845 61.13H114.903ZM114.504 61.5292H110.899V62.4708H114.504V61.5292ZM133.232 43.4806V43.9514H133.703V43.4806H133.232ZM124.531 39.6276L124.999 39.6796L125 39.6708L125.001 39.662L124.531 39.6276ZM119.249 39.5033L118.779 39.4709L118.778 39.4871V39.5033H119.249ZM133.232 48.2658H133.703V47.795H133.232V48.2658ZM128.819 62.1507C125.917 62.1507 123.525 61.1504 121.859 59.4772C120.192 57.8035 119.223 55.4259 119.223 52.616H118.281C118.281 55.6478 119.331 58.273 121.192 60.1415C123.052 62.0106 125.694 63.0923 128.819 63.0923V62.1507ZM119.223 52.616C119.223 47.7402 122.966 43.9514 128.571 43.9514V43.0098C122.492 43.0098 118.281 47.1757 118.281 52.616H119.223ZM128.571 43.9514H133.232V43.0098H128.571V43.9514ZM133.703 43.4806V40.0626H132.761V43.4806H133.703ZM133.703 40.0626C133.703 38.5715 133.254 37.268 132.389 36.3326C131.519 35.3928 130.269 34.8688 128.757 34.8688V35.8104C130.042 35.8104 131.029 36.2495 131.698 36.9721C132.37 37.6991 132.761 38.7572 132.761 40.0626H133.703ZM128.757 34.8688C127.34 34.8688 126.2 35.3451 125.392 36.206C124.592 37.0587 124.161 38.2438 124.062 39.5932L125.001 39.662C125.089 38.4635 125.465 37.5045 126.079 36.8502C126.685 36.2041 127.564 35.8104 128.757 35.8104V34.8688ZM124.064 39.5756C124.038 39.8034 123.986 39.8451 123.981 39.8485C123.97 39.8584 123.905 39.9025 123.661 39.9025V40.8441C123.977 40.8441 124.316 40.7951 124.584 40.5719C124.86 40.3422 124.963 40.0111 124.999 39.6796L124.064 39.5756ZM123.661 39.9025H120.057V40.8441H123.661V39.9025ZM120.057 39.9025C119.934 39.9025 119.862 39.8601 119.817 39.8098C119.767 39.7544 119.72 39.6552 119.72 39.5033H118.778C118.778 39.8486 118.887 40.1844 119.117 40.4397C119.351 40.7002 119.683 40.8441 120.057 40.8441V39.9025ZM119.719 39.5357C119.898 36.9306 120.869 34.7284 122.431 33.1804C123.991 31.6352 126.169 30.7144 128.819 30.7144V29.7728C125.939 29.7728 123.518 30.7786 121.769 32.5115C120.022 34.2417 118.973 36.6694 118.779 39.4709L119.719 39.5357ZM128.819 30.7144C131.654 30.7144 133.949 31.7258 135.538 33.4099C137.13 35.0969 138.043 37.4924 138.043 40.3112H138.985C138.985 37.2883 138.003 34.65 136.223 32.7637C134.441 30.8744 131.889 29.7728 128.819 29.7728V30.7144ZM138.043 40.3112V52.8025H138.985V40.3112H138.043ZM138.043 52.8025C138.043 55.5581 137.146 57.8896 135.565 59.5292C133.986 61.1665 131.69 62.1507 128.819 62.1507V63.0923C131.915 63.0923 134.466 62.0256 136.243 60.1828C138.018 58.3422 138.985 55.7642 138.985 52.8025H138.043ZM128.757 57.9963C130.293 57.9963 131.546 57.4922 132.412 56.5556C133.274 55.6241 133.703 54.318 133.703 52.8025H132.761C132.761 54.1456 132.382 55.2011 131.721 55.9164C131.064 56.6266 130.08 57.0547 128.757 57.0547V57.9963ZM133.703 52.8025V48.2658H132.761V52.8025H133.703ZM133.232 47.795H128.757V48.7366H133.232V47.795ZM128.757 47.795C127.19 47.795 125.901 48.3139 125.002 49.1959C124.104 50.0769 123.626 51.2894 123.626 52.616H124.567C124.567 51.519 124.959 50.5564 125.661 49.8682C126.362 49.181 127.403 48.7366 128.757 48.7366V47.795ZM123.626 52.616C123.626 54.1976 124.088 55.5501 124.988 56.5112C125.892 57.4762 127.189 57.9963 128.757 57.9963V57.0547C127.404 57.0547 126.372 56.6116 125.675 55.8676C124.975 55.1197 124.567 54.0175 124.567 52.616H123.626Z" fill="#EEFF90" mask="url(#path-1-outside-1_367_183)"/>
<mask id="path-3-outside-2_367_183" maskUnits="userSpaceOnUse" x="140.769" y="27.8832" width="125" height="37" fill="black">
<rect fill="white" x="140.769" y="27.8832" width="125" height="37"/>
<path d="M166.501 31.1494C171.744 31.1494 175.119 35.187 175.119 40.6106V61.2806C175.119 61.6422 174.878 61.8832 174.516 61.8832H172.286C171.925 61.8832 171.684 61.6422 171.684 61.2806V40.6106C171.684 36.9948 169.816 34.4638 166.501 34.4638C163.187 34.4638 161.319 36.9948 161.319 40.6106V61.2806C161.319 61.6422 161.077 61.8832 160.716 61.8832H158.486C158.125 61.8832 157.884 61.6422 157.884 61.2806V40.6106C157.884 36.9948 156.015 34.4638 152.701 34.4638C149.387 34.4638 147.518 36.9948 147.518 40.6106V61.2806C147.518 61.6422 147.277 61.8832 146.916 61.8832H144.686C144.325 61.8832 144.083 61.6422 144.083 61.2806V40.6106C144.083 35.187 147.458 31.1494 152.701 31.1494C155.835 31.1494 158.305 33.0175 159.631 35.6691C160.897 33.0175 163.367 31.1494 166.501 31.1494ZM190.425 62.4858C184.821 62.4858 181.145 58.4482 181.145 53.0246V40.6106C181.145 35.187 184.821 31.1494 190.425 31.1494C196.03 31.1494 199.706 35.187 199.706 40.6106V53.0246C199.706 58.4482 196.03 62.4858 190.425 62.4858ZM190.425 59.2317C194.041 59.2317 196.21 56.7006 196.21 53.0246V40.6106C196.21 36.9346 194.041 34.4036 190.425 34.4036C186.809 34.4036 184.64 36.9346 184.64 40.6106V53.0246C184.64 56.7006 186.809 59.2317 190.425 59.2317ZM205.772 31.752H208.002C208.364 31.752 208.605 31.9931 208.605 32.3546V53.0246C208.605 56.7006 210.714 59.2317 214.149 59.2317C217.584 59.2317 219.693 56.7006 219.693 53.0246V32.3546C219.693 31.9931 219.934 31.752 220.296 31.752H222.525C222.887 31.752 223.128 31.9931 223.128 32.3546V53.0246C223.128 58.4482 219.512 62.4858 214.149 62.4858C208.785 62.4858 205.17 58.4482 205.17 53.0246V32.3546C205.17 31.9931 205.411 31.752 205.772 31.752ZM229.842 61.8832C229.48 61.8832 229.239 61.6422 229.239 61.2806V40.8516C229.239 35.3075 233.277 31.5712 238.701 31.5712H241.352C241.714 31.5712 241.955 31.8123 241.955 32.1739V34.283C241.955 34.6446 241.714 34.8857 241.352 34.8857H238.701C235.145 34.8857 232.674 37.1154 232.674 40.8516V61.2806C232.674 61.6422 232.433 61.8832 232.072 61.8832H229.842ZM253.856 62.4256C248.251 62.4256 244.575 58.4482 244.575 53.0849C244.575 48.3242 248.251 44.4071 253.735 44.4071H259.581V40.4901C259.581 36.9948 257.471 34.4638 253.916 34.4638C250.722 34.4638 248.733 36.6935 248.492 40.008C248.432 40.4298 248.251 40.6106 247.89 40.6106H245.66C245.298 40.6106 245.057 40.3695 245.057 40.008C245.359 34.8857 248.733 31.1494 253.916 31.1494C259.46 31.1494 263.015 35.187 263.015 40.4901V53.0849C263.015 58.4482 259.4 62.4256 253.856 62.4256ZM253.856 59.1111C257.471 59.1111 259.581 56.6404 259.581 53.0849V47.7215H253.735C250.18 47.7215 248.01 50.132 248.01 53.0849C248.01 56.6404 250.18 59.1111 253.856 59.1111Z"/>
</mask>
<path d="M159.631 35.6691L157.526 36.7218L159.68 41.0312L161.756 36.683L159.631 35.6691ZM166.501 33.5034C168.478 33.5034 169.982 34.2454 171.016 35.4096C172.073 36.5998 172.765 38.3798 172.765 40.6106H177.473C177.473 37.4177 176.476 34.4672 174.536 32.2827C172.572 30.0722 169.767 28.7954 166.501 28.7954V33.5034ZM172.765 40.6106V61.2806H177.473V40.6106H172.765ZM172.765 61.2806C172.765 60.9264 172.893 60.4484 173.288 60.0529C173.684 59.6575 174.162 59.5292 174.516 59.5292V64.2372C175.232 64.2372 176.011 63.9884 176.617 63.382C177.224 62.7757 177.473 61.9963 177.473 61.2806H172.765ZM174.516 59.5292H172.286V64.2372H174.516V59.5292ZM172.286 59.5292C172.64 59.5292 173.118 59.6575 173.514 60.053C173.909 60.4484 174.038 60.9264 174.038 61.2806H169.33C169.33 61.9963 169.578 62.7757 170.185 63.382C170.791 63.9883 171.571 64.2372 172.286 64.2372V59.5292ZM174.038 61.2806V40.6106H169.33V61.2806H174.038ZM174.038 40.6106C174.038 38.4243 173.474 36.3119 172.162 34.6969C170.802 33.0232 168.816 32.1098 166.501 32.1098V36.8178C167.501 36.8178 168.106 37.17 168.508 37.6657C168.959 38.2202 169.33 39.1812 169.33 40.6106H174.038ZM166.501 32.1098C164.187 32.1098 162.2 33.0232 160.84 34.6969C159.528 36.3119 158.965 38.4243 158.965 40.6106H163.673C163.673 39.1812 164.043 38.2202 164.494 37.6657C164.897 37.17 165.501 36.8178 166.501 36.8178V32.1098ZM158.965 40.6106V61.2806H163.673V40.6106H158.965ZM158.965 61.2806C158.965 60.9264 159.093 60.4484 159.488 60.053C159.884 59.6575 160.362 59.5292 160.716 59.5292V64.2372C161.432 64.2372 162.211 63.9883 162.817 63.382C163.424 62.7757 163.673 61.9963 163.673 61.2806H158.965ZM160.716 59.5292H158.486V64.2372H160.716V59.5292ZM158.486 59.5292C158.84 59.5292 159.318 59.6575 159.714 60.053C160.109 60.4484 160.238 60.9264 160.238 61.2806H155.53C155.53 61.9963 155.778 62.7757 156.385 63.382C156.991 63.9883 157.77 64.2372 158.486 64.2372V59.5292ZM160.238 61.2806V40.6106H155.53V61.2806H160.238ZM160.238 40.6106C160.238 38.4243 159.674 36.3119 158.362 34.6969C157.002 33.0232 155.015 32.1098 152.701 32.1098V36.8178C153.701 36.8178 154.305 37.17 154.708 37.6657C155.159 38.2202 155.53 39.1812 155.53 40.6106H160.238ZM152.701 32.1098C150.387 32.1098 148.4 33.0232 147.04 34.6969C145.728 36.3119 145.164 38.4243 145.164 40.6106H149.872C149.872 39.1812 150.243 38.2202 150.694 37.6657C151.097 37.17 151.701 36.8178 152.701 36.8178V32.1098ZM145.164 40.6106V61.2806H149.872V40.6106H145.164ZM145.164 61.2806C145.164 60.9264 145.293 60.4484 145.688 60.053C146.084 59.6575 146.562 59.5292 146.916 59.5292V64.2372C147.632 64.2372 148.411 63.9883 149.017 63.382C149.624 62.7757 149.872 61.9963 149.872 61.2806H145.164ZM146.916 59.5292H144.686V64.2372H146.916V59.5292ZM144.686 59.5292C145.04 59.5292 145.518 59.6575 145.914 60.053C146.309 60.4484 146.437 60.9264 146.437 61.2806H141.729C141.729 61.9963 141.978 62.7757 142.585 63.382C143.191 63.9883 143.97 64.2372 144.686 64.2372V59.5292ZM146.437 61.2806V40.6106H141.729V61.2806H146.437ZM146.437 40.6106C146.437 38.3798 147.129 36.5998 148.186 35.4096C149.22 34.2454 150.725 33.5034 152.701 33.5034V28.7954C149.435 28.7954 146.63 30.0722 144.666 32.2827C142.726 34.4672 141.729 37.4177 141.729 40.6106H146.437ZM152.701 33.5034C154.789 33.5034 156.525 34.7201 157.526 36.7218L161.737 34.6163C160.086 31.315 156.88 28.7954 152.701 28.7954V33.5034ZM161.756 36.683C162.691 34.7224 164.408 33.5034 166.501 33.5034V28.7954C162.327 28.7954 159.102 31.3126 157.507 34.6551L161.756 36.683ZM190.425 60.1318C188.213 60.1318 186.523 59.3483 185.382 58.159C184.23 56.9586 183.499 55.1997 183.499 53.0246H178.791C178.791 56.2732 179.898 59.2448 181.985 61.4191C184.083 63.6046 187.033 64.8398 190.425 64.8398V60.1318ZM183.499 53.0246V40.6106H178.791V53.0246H183.499ZM183.499 40.6106C183.499 38.4355 184.23 36.6766 185.382 35.4762C186.523 34.287 188.213 33.5034 190.425 33.5034V28.7954C187.033 28.7954 184.083 30.0306 181.985 32.2161C179.898 34.3904 178.791 37.362 178.791 40.6106H183.499ZM190.425 33.5034C192.637 33.5034 194.327 34.287 195.469 35.4762C196.621 36.6766 197.352 38.4355 197.352 40.6106H202.06C202.06 37.362 200.952 34.3904 198.865 32.2161C196.768 30.0306 193.817 28.7954 190.425 28.7954V33.5034ZM197.352 40.6106V53.0246H202.06V40.6106H197.352ZM197.352 53.0246C197.352 55.1997 196.621 56.9586 195.469 58.159C194.327 59.3483 192.637 60.1318 190.425 60.1318V64.8398C193.817 64.8398 196.768 63.6046 198.865 61.4191C200.952 59.2448 202.06 56.2732 202.06 53.0246H197.352ZM190.425 61.5857C192.813 61.5857 194.921 60.7319 196.414 59.0913C197.884 57.477 198.564 55.3168 198.564 53.0246H193.856C193.856 54.4085 193.452 55.3518 192.933 55.922C192.438 56.4659 191.654 56.8777 190.425 56.8777V61.5857ZM198.564 53.0246V40.6106H193.856V53.0246H198.564ZM198.564 40.6106C198.564 38.3184 197.884 36.1582 196.414 34.5439C194.921 32.9033 192.813 32.0496 190.425 32.0496V36.7576C191.654 36.7576 192.438 37.1693 192.933 37.7132C193.452 38.2834 193.856 39.2267 193.856 40.6106H198.564ZM190.425 32.0496C188.038 32.0496 185.93 32.9033 184.436 34.5439C182.966 36.1582 182.286 38.3184 182.286 40.6106H186.994C186.994 39.2267 187.398 38.2834 187.917 37.7132C188.413 37.1693 189.197 36.7576 190.425 36.7576V32.0496ZM182.286 40.6106V53.0246H186.994V40.6106H182.286ZM182.286 53.0246C182.286 55.3168 182.966 57.477 184.436 59.0913C185.93 60.7319 188.038 61.5857 190.425 61.5857V56.8777C189.197 56.8777 188.413 56.4659 187.917 55.922C187.398 55.3518 186.994 54.4085 186.994 53.0246H182.286ZM205.772 34.106H208.002V29.398H205.772V34.106ZM208.002 34.106C207.648 34.106 207.17 33.9777 206.774 33.5823C206.379 33.1868 206.251 32.7088 206.251 32.3546H210.959C210.959 31.6389 210.71 30.8596 210.103 30.2532C209.497 29.6469 208.718 29.398 208.002 29.398V34.106ZM206.251 32.3546V53.0246H210.959V32.3546H206.251ZM206.251 53.0246C206.251 55.2997 206.906 57.4454 208.318 59.0576C209.76 60.7039 211.813 61.5857 214.149 61.5857V56.8777C213.049 56.8777 212.331 56.4939 211.859 55.9557C211.358 55.3834 210.959 54.4255 210.959 53.0246H206.251ZM214.149 61.5857C216.484 61.5857 218.538 60.7039 219.98 59.0576C221.392 57.4454 222.047 55.2997 222.047 53.0246H217.339C217.339 54.4255 216.939 55.3834 216.438 55.9557C215.967 56.4939 215.248 56.8777 214.149 56.8777V61.5857ZM222.047 53.0246V32.3546H217.339V53.0246H222.047ZM222.047 32.3546C222.047 32.7088 221.919 33.1868 221.523 33.5823C221.128 33.9777 220.65 34.106 220.296 34.106V29.398C219.58 29.398 218.8 29.6469 218.194 30.2532C217.588 30.8596 217.339 31.6389 217.339 32.3546H222.047ZM220.296 34.106H222.525V29.398H220.296V34.106ZM222.525 34.106C222.171 34.106 221.693 33.9777 221.298 33.5823C220.902 33.1868 220.774 32.7088 220.774 32.3546H225.482C225.482 31.6389 225.233 30.8596 224.627 30.2532C224.02 29.6469 223.241 29.398 222.525 29.398V34.106ZM220.774 32.3546V53.0246H225.482V32.3546H220.774ZM220.774 53.0246C220.774 55.2116 220.05 56.9812 218.928 58.1832C217.821 59.3706 216.21 60.1318 214.149 60.1318V64.8398C217.451 64.8398 220.33 63.5822 222.371 61.395C224.398 59.2223 225.482 56.2613 225.482 53.0246H220.774ZM214.149 60.1318C212.088 60.1318 210.477 59.3706 209.369 58.1832C208.248 56.9812 207.524 55.2116 207.524 53.0246H202.816C202.816 56.2613 203.9 59.2223 205.927 61.395C207.968 63.5822 210.846 64.8398 214.149 64.8398V60.1318ZM207.524 53.0246V32.3546H202.816V53.0246H207.524ZM207.524 32.3546C207.524 32.7088 207.395 33.1868 207 33.5823C206.605 33.9777 206.127 34.106 205.772 34.106V29.398C205.057 29.398 204.277 29.6469 203.671 30.2532C203.065 30.8596 202.816 31.6389 202.816 32.3546H207.524ZM229.842 59.5292C230.196 59.5292 230.674 59.6575 231.07 60.053C231.465 60.4484 231.593 60.9264 231.593 61.2806H226.885C226.885 61.9963 227.134 62.7757 227.741 63.382C228.347 63.9883 229.126 64.2372 229.842 64.2372V59.5292ZM231.593 61.2806V40.8516H226.885V61.2806H231.593ZM231.593 40.8516C231.593 38.6748 232.374 36.9807 233.57 35.8269C234.776 34.6642 236.536 33.9252 238.701 33.9252V29.2172C235.441 29.2172 232.471 30.3464 230.302 32.4379C228.124 34.5382 226.885 37.4843 226.885 40.8516H231.593ZM238.701 33.9252H241.352V29.2172H238.701V33.9252ZM241.352 33.9252C240.998 33.9252 240.52 33.7969 240.124 33.4015C239.729 33.0061 239.601 32.528 239.601 32.1739H244.309C244.309 31.4581 244.06 30.6788 243.454 30.0724C242.847 29.4661 242.068 29.2172 241.352 29.2172V33.9252ZM239.601 32.1739V34.283H244.309V32.1739H239.601ZM239.601 34.283C239.601 33.9289 239.729 33.4508 240.124 33.0554C240.52 32.66 240.998 32.5317 241.352 32.5317V37.2397C242.068 37.2397 242.847 36.9908 243.454 36.3845C244.06 35.7781 244.309 34.9988 244.309 34.283H239.601ZM241.352 32.5317H238.701V37.2397H241.352V32.5317ZM238.701 32.5317C236.43 32.5317 234.298 33.2507 232.72 34.7733C231.129 36.3076 230.32 38.4466 230.32 40.8516H235.028C235.028 39.5204 235.455 38.6764 235.988 38.1618C236.534 37.6355 237.415 37.2397 238.701 37.2397V32.5317ZM230.32 40.8516V61.2806H235.028V40.8516H230.32ZM230.32 61.2806C230.32 60.9264 230.449 60.4484 230.844 60.053C231.239 59.6575 231.718 59.5292 232.072 59.5292V64.2372C232.787 64.2372 233.567 63.9883 234.173 63.382C234.779 62.7757 235.028 61.9963 235.028 61.2806H230.32ZM232.072 59.5292H229.842V64.2372H232.072V59.5292ZM259.581 44.4071V46.7611H261.935V44.4071H259.581ZM248.492 40.008L250.823 40.3409L250.834 40.2601L250.84 40.1787L248.492 40.008ZM245.057 40.008L242.707 39.8697L242.703 39.9388V40.008H245.057ZM259.581 47.7215H261.935V45.3675H259.581V47.7215ZM253.856 60.0716C251.632 60.0716 249.939 59.2951 248.801 58.125C247.654 56.9463 246.929 55.2217 246.929 53.0849H242.221C242.221 56.3115 243.334 59.2572 245.426 61.408C247.527 63.5674 250.475 64.7796 253.856 64.7796V60.0716ZM246.929 53.0849C246.929 49.6661 249.509 46.7611 253.735 46.7611V42.0531C246.993 42.0531 242.221 46.9822 242.221 53.0849H246.929ZM253.735 46.7611H259.581V42.0531H253.735V46.7611ZM261.935 44.4071V40.4901H257.227V44.4071H261.935ZM261.935 40.4901C261.935 38.2775 261.263 36.1678 259.824 34.5834C258.36 32.9719 256.285 32.1098 253.916 32.1098V36.8178C255.102 36.8178 255.86 37.2213 256.339 37.7491C256.843 38.304 257.227 39.2075 257.227 40.4901H261.935ZM253.916 32.1098C251.735 32.1098 249.804 32.8891 248.393 34.3685C247.01 35.8187 246.295 37.7624 246.144 39.8372L250.84 40.1787C250.93 38.9391 251.33 38.1107 251.8 37.6174C252.243 37.1534 252.903 36.8178 253.916 36.8178V32.1098ZM246.162 39.6751C246.164 39.6619 246.218 39.2239 246.639 38.8029C247.122 38.3202 247.675 38.2566 247.89 38.2566V42.9646C248.466 42.9646 249.29 42.8106 249.968 42.132C250.585 41.5152 250.76 40.7759 250.823 40.3409L246.162 39.6751ZM247.89 38.2566H245.66V42.9646H247.89V38.2566ZM245.66 38.2566C246.014 38.2566 246.492 38.3849 246.888 38.7803C247.283 39.1758 247.411 39.6538 247.411 40.008H242.703C242.703 40.7237 242.952 41.5031 243.558 42.1094C244.165 42.7157 244.944 42.9646 245.66 42.9646V38.2566ZM247.407 40.1462C247.53 38.0622 248.266 36.409 249.345 35.2979C250.405 34.2065 251.923 33.5034 253.916 33.5034V28.7954C250.726 28.7954 247.966 29.9604 245.968 32.0177C243.988 34.0553 242.886 36.8315 242.707 39.8697L247.407 40.1462ZM253.916 33.5034C256.088 33.5034 257.729 34.2797 258.835 35.4487C259.955 36.633 260.661 38.3662 260.661 40.4901H265.369C265.369 37.3108 264.298 34.3737 262.255 32.2134C260.197 30.0379 257.288 28.7954 253.916 28.7954V33.5034ZM260.661 40.4901V53.0849H265.369V40.4901H260.661ZM260.661 53.0849C260.661 55.233 259.944 56.961 258.816 58.1369C257.699 59.3014 256.04 60.0716 253.856 60.0716V64.7796C257.215 64.7796 260.137 63.5611 262.213 61.3961C264.279 59.2425 265.369 56.3002 265.369 53.0849H260.661ZM253.856 61.4651C256.227 61.4651 258.319 60.6378 259.805 59.027C261.267 57.4406 261.935 55.3198 261.935 53.0849H257.227C257.227 54.4055 256.839 55.2978 256.343 55.8357C255.87 56.3491 255.1 56.7571 253.856 56.7571V61.4651ZM261.935 53.0849V47.7215H257.227V53.0849H261.935ZM259.581 45.3675H253.735V50.0755H259.581V45.3675ZM253.735 45.3675C251.408 45.3675 249.361 46.1675 247.888 47.6186C246.421 49.0628 245.656 51.0219 245.656 53.0849H250.364C250.364 52.195 250.684 51.4725 251.191 50.9732C251.691 50.4809 252.507 50.0755 253.735 50.0755V45.3675ZM245.656 53.0849C245.656 55.3374 246.349 57.4639 247.842 59.0466C249.352 60.6473 251.468 61.4651 253.856 61.4651V56.7571C252.567 56.7571 251.761 56.3395 251.267 55.8161C250.756 55.2745 250.364 54.3879 250.364 53.0849H245.656Z" fill="#EEFF90" mask="url(#path-3-outside-2_367_183)"/>
</svg>
